<svg width="1920" height="147" viewBox="0 0 1920 147" fill="none" xmlns="http://www.w3.org/2000/svg">
<g filter="url(#filter0_b_478_14731)">
<rect width="1920" height="147" fill="#DEDEDE" fill-opacity="0.5"/>
</g>
<path d="M739.663 80L735.963 69.2686H735.884C735.901 69.5088 735.922 69.8369 735.945 70.2529C735.969 70.6689 735.989 71.1143 736.007 71.5889C736.024 72.0635 736.033 72.5176 736.033 72.9512V80H734.117V67.1504H737.079L740.639 77.4072H740.691L744.374 67.1504H747.327V80H745.314V72.8457C745.314 72.4531 745.32 72.0283 745.332 71.5713C745.35 71.1143 745.367 70.6807 745.385 70.2705C745.408 69.8604 745.426 69.5322 745.438 69.2861H745.367L741.526 80H739.663ZM754.376 70.0859C755.243 70.0859 755.987 70.2646 756.608 70.6221C757.229 70.9795 757.707 71.4863 758.041 72.1426C758.375 72.7988 758.542 73.584 758.542 74.498V75.6055H752.047C752.07 76.5488 752.322 77.2754 752.803 77.7852C753.289 78.2949 753.969 78.5498 754.842 78.5498C755.463 78.5498 756.02 78.4912 756.512 78.374C757.01 78.251 757.522 78.0723 758.05 77.8379V79.5166C757.563 79.7451 757.068 79.9121 756.564 80.0176C756.061 80.123 755.457 80.1758 754.754 80.1758C753.799 80.1758 752.958 79.9912 752.231 79.6221C751.511 79.2471 750.945 78.6904 750.535 77.9521C750.131 77.2139 749.929 76.2969 749.929 75.2012C749.929 74.1113 750.113 73.1855 750.482 72.4238C750.852 71.6621 751.37 71.082 752.038 70.6836C752.706 70.2852 753.485 70.0859 754.376 70.0859ZM754.376 71.6416C753.726 71.6416 753.198 71.8525 752.794 72.2744C752.396 72.6963 752.161 73.3145 752.091 74.1289H756.521C756.515 73.6426 756.433 73.2119 756.274 72.8369C756.122 72.4619 755.888 72.1689 755.571 71.958C755.261 71.7471 754.862 71.6416 754.376 71.6416ZM765.863 70.0859C767.018 70.0859 767.943 70.5078 768.641 71.3516C769.344 72.1953 769.695 73.4492 769.695 75.1133C769.695 76.2148 769.531 77.1436 769.203 77.8994C768.881 78.6494 768.427 79.2178 767.841 79.6045C767.261 79.9854 766.584 80.1758 765.811 80.1758C765.318 80.1758 764.891 80.1113 764.527 79.9824C764.164 79.8535 763.854 79.6865 763.596 79.4814C763.338 79.2705 763.121 79.042 762.945 78.7959H762.822C762.852 79.0303 762.878 79.291 762.901 79.5781C762.931 79.8594 762.945 80.1172 762.945 80.3516V84.3154H760.871V70.2705H762.559L762.849 71.6152H762.945C763.127 71.3398 763.347 71.085 763.604 70.8506C763.868 70.6162 764.185 70.4316 764.554 70.2969C764.929 70.1562 765.365 70.0859 765.863 70.0859ZM765.31 71.7734C764.741 71.7734 764.284 71.8877 763.938 72.1162C763.599 72.3389 763.35 72.6758 763.191 73.127C763.039 73.5781 762.957 74.1436 762.945 74.8232V75.1133C762.945 75.834 763.019 76.4463 763.165 76.9502C763.317 77.4482 763.566 77.8291 763.912 78.0928C764.264 78.3506 764.738 78.4795 765.336 78.4795C765.84 78.4795 766.256 78.3418 766.584 78.0664C766.918 77.791 767.167 77.3984 767.331 76.8887C767.495 76.3789 767.577 75.7783 767.577 75.0869C767.577 74.0381 767.39 73.2236 767.015 72.6436C766.646 72.0635 766.077 71.7734 765.31 71.7734ZM780.699 75.1133C780.699 75.9219 780.594 76.6396 780.383 77.2666C780.172 77.8936 779.864 78.4238 779.46 78.8574C779.056 79.2852 778.569 79.6133 778.001 79.8418C777.433 80.0645 776.791 80.1758 776.076 80.1758C775.408 80.1758 774.796 80.0645 774.239 79.8418C773.683 79.6133 773.199 79.2852 772.789 78.8574C772.385 78.4238 772.071 77.8936 771.849 77.2666C771.626 76.6396 771.515 75.9219 771.515 75.1133C771.515 74.041 771.699 73.1328 772.068 72.3887C772.443 71.6387 772.977 71.0674 773.668 70.6748C774.359 70.2822 775.183 70.0859 776.138 70.0859C777.034 70.0859 777.825 70.2822 778.511 70.6748C779.196 71.0674 779.732 71.6387 780.119 72.3887C780.506 73.1387 780.699 74.0469 780.699 75.1133ZM773.642 75.1133C773.642 75.8223 773.727 76.4287 773.896 76.9326C774.072 77.4365 774.342 77.8232 774.705 78.0928C775.068 78.3564 775.537 78.4883 776.111 78.4883C776.686 78.4883 777.154 78.3564 777.518 78.0928C777.881 77.8232 778.147 77.4365 778.317 76.9326C778.487 76.4287 778.572 75.8223 778.572 75.1133C778.572 74.4043 778.487 73.8037 778.317 73.3115C778.147 72.8135 777.881 72.4355 777.518 72.1777C777.154 71.9141 776.683 71.7822 776.103 71.7822C775.247 71.7822 774.623 72.0693 774.23 72.6436C773.838 73.2178 773.642 74.041 773.642 75.1133ZM791.571 70.2705V80H789.488V71.9053H785.146V80H783.072V70.2705H791.571ZM799.525 70.0859C800.68 70.0859 801.605 70.5078 802.303 71.3516C803.006 72.1953 803.357 73.4492 803.357 75.1133C803.357 76.2148 803.193 77.1436 802.865 77.8994C802.543 78.6494 802.089 79.2178 801.503 79.6045C800.923 79.9854 800.246 80.1758 799.473 80.1758C798.98 80.1758 798.553 80.1113 798.189 79.9824C797.826 79.8535 797.516 79.6865 797.258 79.4814C797 79.2705 796.783 79.042 796.607 78.7959H796.484C796.514 79.0303 796.54 79.291 796.563 79.5781C796.593 79.8594 796.607 80.1172 796.607 80.3516V84.3154H794.533V70.2705H796.221L796.511 71.6152H796.607C796.789 71.3398 797.009 71.085 797.267 70.8506C797.53 70.6162 797.847 70.4316 798.216 70.2969C798.591 70.1562 799.027 70.0859 799.525 70.0859ZM798.972 71.7734C798.403 71.7734 797.946 71.8877 797.601 72.1162C797.261 72.3389 797.012 72.6758 796.854 73.127C796.701 73.5781 796.619 74.1436 796.607 74.8232V75.1133C796.607 75.834 796.681 76.4463 796.827 76.9502C796.979 77.4482 797.229 77.8291 797.574 78.0928C797.926 78.3506 798.4 78.4795 798.998 78.4795C799.502 78.4795 799.918 78.3418 800.246 78.0664C800.58 77.791 800.829 77.3984 800.993 76.8887C801.157 76.3789 801.239 75.7783 801.239 75.0869C801.239 74.0381 801.052 73.2236 800.677 72.6436C800.308 72.0635 799.739 71.7734 798.972 71.7734ZM807.734 70.2705V75.2363C807.734 75.3945 807.729 75.5967 807.717 75.8428C807.711 76.083 807.699 76.335 807.682 76.5986C807.664 76.8564 807.646 77.0938 807.629 77.3105C807.611 77.5273 807.597 77.6885 807.585 77.7939L812.48 70.2705H814.994V80H813.017V75.0869C813.017 74.8291 813.022 74.5303 813.034 74.1904C813.052 73.8506 813.069 73.5225 813.087 73.2061C813.11 72.8896 813.125 72.6494 813.131 72.4854L808.253 80H805.748V70.2705H807.734ZM818.94 80H816.638L819.354 76.0273C818.984 75.9102 818.639 75.7373 818.316 75.5088C818 75.2744 817.742 74.9697 817.543 74.5947C817.344 74.2139 817.244 73.751 817.244 73.2061C817.244 72.2568 817.584 71.5303 818.264 71.0264C818.943 70.5225 819.831 70.2705 820.927 70.2705H825.339V80H823.273V76.2383H821.313L818.94 80ZM819.266 73.2236C819.266 73.7158 819.45 74.0908 819.819 74.3486C820.188 74.6006 820.692 74.7266 821.331 74.7266H823.273V71.8262H821.032C820.417 71.8262 819.969 71.9609 819.688 72.2305C819.406 72.4941 819.266 72.8252 819.266 73.2236ZM835.631 71.8965H832.432V80H830.375V71.8965H827.193V70.2705H835.631V71.8965ZM839.498 70.2705V75.2363C839.498 75.3945 839.492 75.5967 839.48 75.8428C839.475 76.083 839.463 76.335 839.445 76.5986C839.428 76.8564 839.41 77.0938 839.393 77.3105C839.375 77.5273 839.36 77.6885 839.349 77.7939L844.244 70.2705H846.758V80H844.78V75.0869C844.78 74.8291 844.786 74.5303 844.798 74.1904C844.815 73.8506 844.833 73.5225 844.851 73.2061C844.874 72.8896 844.889 72.6494 844.895 72.4854L840.017 80H837.512V70.2705H839.498ZM850.704 80H848.401L851.117 76.0273C850.748 75.9102 850.402 75.7373 850.08 75.5088C849.764 75.2744 849.506 74.9697 849.307 74.5947C849.107 74.2139 849.008 73.751 849.008 73.2061C849.008 72.2568 849.348 71.5303 850.027 71.0264C850.707 70.5225 851.595 70.2705 852.69 70.2705H857.103V80H855.037V76.2383H853.077L850.704 80ZM851.029 73.2236C851.029 73.7158 851.214 74.0908 851.583 74.3486C851.952 74.6006 852.456 74.7266 853.095 74.7266H855.037V71.8262H852.796C852.181 71.8262 851.732 71.9609 851.451 72.2305C851.17 72.4941 851.029 72.8252 851.029 73.2236Z" fill="#1F1E1E"/>
<path d="M910.989 80V67.1504H918.829V68.9346H913.099V72.3447H914.637C915.855 72.3447 916.834 72.5059 917.572 72.8281C918.311 73.1445 918.844 73.5869 919.172 74.1553C919.5 74.7236 919.664 75.377 919.664 76.1152C919.664 77.3398 919.274 78.2949 918.495 78.9805C917.722 79.6602 916.465 80 914.725 80H910.989ZM913.099 78.2422H914.593C915.583 78.2422 916.318 78.0752 916.799 77.7412C917.279 77.4014 917.52 76.8594 917.52 76.1152C917.52 75.5938 917.402 75.1895 917.168 74.9023C916.934 74.6094 916.582 74.4043 916.113 74.2871C915.65 74.1699 915.064 74.1113 914.355 74.1113H913.099V78.2422ZM930.035 80H927.952V71.8877H925.254C925.137 73.3643 924.99 74.627 924.814 75.6758C924.639 76.7246 924.419 77.5801 924.155 78.2422C923.892 78.8984 923.566 79.3789 923.18 79.6836C922.793 79.9883 922.327 80.1406 921.782 80.1406C921.542 80.1406 921.325 80.123 921.132 80.0879C920.938 80.0586 920.766 80.0117 920.613 79.9473V78.3213C920.713 78.3564 920.821 78.3857 920.938 78.4092C921.056 78.4326 921.176 78.4443 921.299 78.4443C921.516 78.4443 921.715 78.3564 921.896 78.1807C922.084 77.999 922.257 77.7148 922.415 77.3281C922.573 76.9414 922.717 76.4316 922.846 75.7988C922.975 75.1602 923.092 74.3867 923.197 73.4785C923.303 72.5645 923.396 71.4951 923.479 70.2705H930.035V80ZM941.61 75.1133C941.61 75.9219 941.505 76.6396 941.294 77.2666C941.083 77.8936 940.775 78.4238 940.371 78.8574C939.967 79.2852 939.48 79.6133 938.912 79.8418C938.344 80.0645 937.702 80.1758 936.987 80.1758C936.319 80.1758 935.707 80.0645 935.15 79.8418C934.594 79.6133 934.11 79.2852 933.7 78.8574C933.296 78.4238 932.982 77.8936 932.76 77.2666C932.537 76.6396 932.426 75.9219 932.426 75.1133C932.426 74.041 932.61 73.1328 932.979 72.3887C933.354 71.6387 933.888 71.0674 934.579 70.6748C935.271 70.2822 936.094 70.0859 937.049 70.0859C937.945 70.0859 938.736 70.2822 939.422 70.6748C940.107 71.0674 940.644 71.6387 941.03 72.3887C941.417 73.1387 941.61 74.0469 941.61 75.1133ZM934.553 75.1133C934.553 75.8223 934.638 76.4287 934.808 76.9326C934.983 77.4365 935.253 77.8232 935.616 78.0928C935.979 78.3564 936.448 78.4883 937.022 78.4883C937.597 78.4883 938.065 78.3564 938.429 78.0928C938.792 77.8232 939.059 77.4365 939.229 76.9326C939.398 76.4287 939.483 75.8223 939.483 75.1133C939.483 74.4043 939.398 73.8037 939.229 73.3115C939.059 72.8135 938.792 72.4355 938.429 72.1777C938.065 71.9141 937.594 71.7822 937.014 71.7822C936.158 71.7822 935.534 72.0693 935.142 72.6436C934.749 73.2178 934.553 74.041 934.553 75.1133ZM950.294 70.2705V71.8965H946.058V80H943.983V70.2705H950.294Z" fill="#1F1E1E"/>
<path d="M1014.15 73.5576C1014.15 74.5479 1014.03 75.4502 1013.77 76.2646C1013.53 77.0732 1013.16 77.7705 1012.66 78.3564C1012.16 78.9365 1011.54 79.3848 1010.79 79.7012C1010.04 80.0176 1009.16 80.1758 1008.15 80.1758C1007.12 80.1758 1006.23 80.0176 1005.48 79.7012C1004.73 79.3848 1004.1 78.9336 1003.61 78.3477C1003.11 77.7617 1002.74 77.0615 1002.5 76.2471C1002.25 75.4326 1002.13 74.5303 1002.13 73.54C1002.13 72.2158 1002.35 71.0615 1002.78 70.0771C1003.22 69.0869 1003.88 68.3193 1004.77 67.7744C1005.67 67.2236 1006.8 66.9482 1008.17 66.9482C1009.5 66.9482 1010.61 67.2207 1011.5 67.7656C1012.38 68.3105 1013.04 69.0781 1013.48 70.0684C1013.93 71.0527 1014.15 72.2158 1014.15 73.5576ZM1004.34 73.5576C1004.34 74.5479 1004.48 75.4062 1004.75 76.1328C1005.02 76.8535 1005.43 77.4102 1005.99 77.8027C1006.55 78.1895 1007.27 78.3828 1008.15 78.3828C1009.03 78.3828 1009.75 78.1895 1010.31 77.8027C1010.87 77.4102 1011.28 76.8535 1011.54 76.1328C1011.81 75.4062 1011.94 74.5479 1011.94 73.5576C1011.94 72.0518 1011.64 70.874 1011.03 70.0244C1010.43 69.1689 1009.48 68.7412 1008.17 68.7412C1007.29 68.7412 1006.56 68.9346 1006 69.3213C1005.43 69.708 1005.02 70.2617 1004.75 70.9824C1004.48 71.6973 1004.34 72.5557 1004.34 73.5576ZM1023.45 70.2705V74.1816H1028V70.2705H1030.08V80H1028V75.7988H1023.45V80H1021.38V70.2705H1023.45ZM1036.85 70.0859C1038.08 70.0859 1039 70.3584 1039.63 70.9033C1040.26 71.4482 1040.58 72.2979 1040.58 73.4521V80H1039.11L1038.72 78.6201H1038.65C1038.37 78.9717 1038.09 79.2617 1037.79 79.4902C1037.5 79.7188 1037.16 79.8887 1036.78 80C1036.39 80.1172 1035.93 80.1758 1035.38 80.1758C1034.8 80.1758 1034.28 80.0703 1033.82 79.8594C1033.37 79.6426 1033 79.3145 1032.74 78.875C1032.48 78.4355 1032.35 77.8789 1032.35 77.2051C1032.35 76.2031 1032.72 75.4502 1033.46 74.9463C1034.21 74.4424 1035.34 74.1641 1036.85 74.1113L1038.54 74.0498V73.54C1038.54 72.8662 1038.38 72.3857 1038.07 72.0986C1037.76 71.8115 1037.32 71.668 1036.75 71.668C1036.26 71.668 1035.79 71.7383 1035.33 71.8789C1034.88 72.0195 1034.43 72.1924 1034 72.3975L1033.33 70.9385C1033.8 70.6865 1034.34 70.4814 1034.95 70.3232C1035.56 70.165 1036.19 70.0859 1036.85 70.0859ZM1038.53 75.3506L1037.28 75.3945C1036.25 75.4297 1035.52 75.6055 1035.11 75.9219C1034.69 76.2383 1034.48 76.6719 1034.48 77.2227C1034.48 77.7031 1034.62 78.0547 1034.91 78.2773C1035.2 78.4941 1035.58 78.6025 1036.05 78.6025C1036.76 78.6025 1037.35 78.4004 1037.82 77.9961C1038.3 77.5859 1038.53 76.9854 1038.53 76.1943V75.3506ZM1047.39 80.1758C1046.47 80.1758 1045.68 79.9971 1045 79.6396C1044.33 79.2822 1043.81 78.7344 1043.45 77.9961C1043.08 77.2578 1042.9 76.3203 1042.9 75.1836C1042.9 74 1043.1 73.0332 1043.5 72.2832C1043.9 71.5332 1044.45 70.9795 1045.15 70.6221C1045.86 70.2646 1046.67 70.0859 1047.59 70.0859C1048.17 70.0859 1048.69 70.1445 1049.16 70.2617C1049.63 70.373 1050.04 70.5107 1050.36 70.6748L1049.75 72.3271C1049.39 72.1807 1049.02 72.0576 1048.65 71.958C1048.27 71.8584 1047.91 71.8086 1047.57 71.8086C1047 71.8086 1046.53 71.9346 1046.14 72.1865C1045.77 72.4385 1045.49 72.8135 1045.3 73.3115C1045.12 73.8096 1045.03 74.4277 1045.03 75.166C1045.03 75.8809 1045.12 76.4844 1045.31 76.9766C1045.5 77.4629 1045.78 77.832 1046.14 78.084C1046.51 78.3301 1046.97 78.4531 1047.51 78.4531C1048.04 78.4531 1048.52 78.3887 1048.94 78.2598C1049.36 78.1309 1049.76 77.9639 1050.13 77.7588V79.5518C1049.77 79.7627 1049.37 79.918 1048.95 80.0176C1048.53 80.123 1048.01 80.1758 1047.39 80.1758Z" fill="#1F1E1E"/>
<path d="M1112.59 80H1110.13L1104.85 73.4785V80H1102.74V67.1504H1104.85V73.373L1110.04 67.1504H1112.34L1107.15 73.3555L1112.59 80ZM1122.69 75.1133C1122.69 75.9219 1122.59 76.6396 1122.38 77.2666C1122.17 77.8936 1121.86 78.4238 1121.45 78.8574C1121.05 79.2852 1120.56 79.6133 1120 79.8418C1119.43 80.0645 1118.79 80.1758 1118.07 80.1758C1117.4 80.1758 1116.79 80.0645 1116.23 79.8418C1115.68 79.6133 1115.19 79.2852 1114.78 78.8574C1114.38 78.4238 1114.07 77.8936 1113.84 77.2666C1113.62 76.6396 1113.51 75.9219 1113.51 75.1133C1113.51 74.041 1113.69 73.1328 1114.06 72.3887C1114.44 71.6387 1114.97 71.0674 1115.66 70.6748C1116.35 70.2822 1117.18 70.0859 1118.13 70.0859C1119.03 70.0859 1119.82 70.2822 1120.5 70.6748C1121.19 71.0674 1121.73 71.6387 1122.11 72.3887C1122.5 73.1387 1122.69 74.0469 1122.69 75.1133ZM1115.64 75.1133C1115.64 75.8223 1115.72 76.4287 1115.89 76.9326C1116.07 77.4365 1116.34 77.8232 1116.7 78.0928C1117.06 78.3564 1117.53 78.4883 1118.11 78.4883C1118.68 78.4883 1119.15 78.3564 1119.51 78.0928C1119.88 77.8232 1120.14 77.4365 1120.31 76.9326C1120.48 76.4287 1120.57 75.8223 1120.57 75.1133C1120.57 74.4043 1120.48 73.8037 1120.31 73.3115C1120.14 72.8135 1119.88 72.4355 1119.51 72.1777C1119.15 71.9141 1118.68 71.7822 1118.1 71.7822C1117.24 71.7822 1116.62 72.0693 1116.22 72.6436C1115.83 73.2178 1115.64 74.041 1115.64 75.1133ZM1127.14 70.2705V74.1816H1131.69V70.2705H1133.77V80H1131.69V75.7988H1127.14V80H1125.07V70.2705H1127.14ZM1144.07 71.8965H1140.87V80H1138.81V71.8965H1135.63V70.2705H1144.07V71.8965ZM1149.76 70.0859C1150.99 70.0859 1151.92 70.3584 1152.55 70.9033C1153.18 71.4482 1153.5 72.2979 1153.5 73.4521V80H1152.03L1151.64 78.6201H1151.57C1151.29 78.9717 1151.01 79.2617 1150.71 79.4902C1150.42 79.7188 1150.08 79.8887 1149.69 80C1149.31 80.1172 1148.85 80.1758 1148.3 80.1758C1147.72 80.1758 1147.2 80.0703 1146.74 79.8594C1146.28 79.6426 1145.92 79.3145 1145.66 78.875C1145.4 78.4355 1145.26 77.8789 1145.26 77.2051C1145.26 76.2031 1145.64 75.4502 1146.38 74.9463C1147.13 74.4424 1148.26 74.1641 1149.77 74.1113L1151.46 74.0498V73.54C1151.46 72.8662 1151.3 72.3857 1150.99 72.0986C1150.67 71.8115 1150.24 71.668 1149.67 71.668C1149.18 71.668 1148.71 71.7383 1148.25 71.8789C1147.79 72.0195 1147.35 72.1924 1146.92 72.3975L1146.25 70.9385C1146.72 70.6865 1147.26 70.4814 1147.87 70.3232C1148.47 70.165 1149.11 70.0859 1149.76 70.0859ZM1151.45 75.3506L1150.19 75.3945C1149.16 75.4297 1148.44 75.6055 1148.02 75.9219C1147.61 76.2383 1147.4 76.6719 1147.4 77.2227C1147.4 77.7031 1147.54 78.0547 1147.83 78.2773C1148.12 78.4941 1148.5 78.6025 1148.96 78.6025C1149.68 78.6025 1150.27 78.4004 1150.74 77.9961C1151.21 77.5859 1151.45 76.9854 1151.45 76.1943V75.3506ZM1162.42 70.2705H1164.7L1160.67 74.9463L1165.04 80H1162.66L1158.46 75.0605V80H1156.39V70.2705H1158.46V74.9902L1162.42 70.2705ZM1173.97 71.8965H1170.77V80H1168.71V71.8965H1165.53V70.2705H1173.97V71.8965ZM1175.85 80V70.2705H1177.92V74.1553H1179.88C1180.8 74.1553 1181.55 74.2607 1182.14 74.4717C1182.73 74.6768 1183.17 74.9873 1183.46 75.4033C1183.75 75.8193 1183.89 76.3408 1183.89 76.9678C1183.89 77.583 1183.75 78.1191 1183.48 78.5762C1183.2 79.0273 1182.77 79.3789 1182.19 79.6309C1181.6 79.877 1180.83 80 1179.88 80H1175.85ZM1177.92 78.4795H1179.74C1180.36 78.4795 1180.87 78.3682 1181.25 78.1455C1181.63 77.917 1181.83 77.542 1181.83 77.0205C1181.83 76.5342 1181.65 76.1914 1181.29 75.9922C1180.94 75.7871 1180.42 75.6846 1179.74 75.6846H1177.92V78.4795ZM1185.39 80V70.2705H1187.47V80H1185.39Z" fill="#1F1E1E"/>
<path d="M1537.88 66.5781H1541.28C1542.76 66.5781 1543.87 66.7917 1544.62 67.2188C1545.37 67.6458 1545.74 68.3828 1545.74 69.4297C1545.74 69.8672 1545.66 70.263 1545.51 70.6172C1545.36 70.9661 1545.14 71.2552 1544.84 71.4844C1544.55 71.7083 1544.19 71.8594 1543.77 71.9375V72.0156C1544.21 72.0938 1544.6 72.2318 1544.95 72.4297C1545.29 72.6276 1545.57 72.9115 1545.77 73.2812C1545.97 73.651 1546.07 74.1302 1546.07 74.7188C1546.07 75.4167 1545.9 76.0104 1545.57 76.5C1545.24 76.9896 1544.77 77.362 1544.16 77.6172C1543.55 77.8724 1542.82 78 1541.98 78H1537.88V66.5781ZM1539.76 71.2891H1541.55C1542.4 71.2891 1542.99 71.151 1543.32 70.875C1543.65 70.599 1543.81 70.1953 1543.81 69.6641C1543.81 69.1224 1543.62 68.7318 1543.23 68.4922C1542.84 68.2526 1542.23 68.1328 1541.38 68.1328H1539.76V71.2891ZM1539.76 72.8047V76.4297H1541.73C1542.61 76.4297 1543.22 76.2604 1543.58 75.9219C1543.93 75.5833 1544.11 75.125 1544.11 74.5469C1544.11 74.1927 1544.03 73.8854 1543.87 73.625C1543.71 73.3646 1543.45 73.1641 1543.09 73.0234C1542.73 72.8776 1542.25 72.8047 1541.64 72.8047H1539.76ZM1555.9 73.6562C1555.9 74.375 1555.8 75.013 1555.62 75.5703C1555.43 76.1276 1555.16 76.599 1554.8 76.9844C1554.44 77.3646 1554.01 77.6562 1553.5 77.8594C1552.99 78.0573 1552.42 78.1562 1551.79 78.1562C1551.2 78.1562 1550.65 78.0573 1550.16 77.8594C1549.66 77.6562 1549.23 77.3646 1548.87 76.9844C1548.51 76.599 1548.23 76.1276 1548.03 75.5703C1547.83 75.013 1547.73 74.375 1547.73 73.6562C1547.73 72.7031 1547.9 71.8958 1548.23 71.2344C1548.56 70.5677 1549.03 70.0599 1549.65 69.7109C1550.26 69.362 1550.99 69.1875 1551.84 69.1875C1552.64 69.1875 1553.34 69.362 1553.95 69.7109C1554.56 70.0599 1555.04 70.5677 1555.38 71.2344C1555.73 71.901 1555.9 72.7083 1555.9 73.6562ZM1549.62 73.6562C1549.62 74.2865 1549.7 74.8255 1549.85 75.2734C1550.01 75.7214 1550.25 76.0651 1550.57 76.3047C1550.89 76.5391 1551.31 76.6562 1551.82 76.6562C1552.33 76.6562 1552.75 76.5391 1553.07 76.3047C1553.39 76.0651 1553.63 75.7214 1553.78 75.2734C1553.93 74.8255 1554.01 74.2865 1554.01 73.6562C1554.01 73.026 1553.93 72.4922 1553.78 72.0547C1553.63 71.612 1553.39 71.276 1553.07 71.0469C1552.75 70.8125 1552.33 70.6953 1551.81 70.6953C1551.05 70.6953 1550.5 70.9505 1550.15 71.4609C1549.8 71.9714 1549.62 72.7031 1549.62 73.6562ZM1559.77 69.3516V73.7656C1559.77 73.9062 1559.77 74.0859 1559.76 74.3047C1559.75 74.5182 1559.74 74.7422 1559.73 74.9766C1559.71 75.2057 1559.7 75.4167 1559.68 75.6094C1559.66 75.8021 1559.65 75.9453 1559.64 76.0391L1563.99 69.3516H1566.23V78H1564.47V73.6328C1564.47 73.4036 1564.47 73.138 1564.48 72.8359C1564.5 72.5339 1564.52 72.2422 1564.53 71.9609C1564.55 71.6797 1564.57 71.4661 1564.57 71.3203L1560.23 78H1558.01V69.3516H1559.77ZM1565.58 65.7109C1565.53 66.2474 1565.38 66.7109 1565.14 67.1016C1564.91 67.487 1564.55 67.7839 1564.07 67.9922C1563.59 68.2005 1562.96 68.3047 1562.18 68.3047C1561.37 68.3047 1560.73 68.2057 1560.27 68.0078C1559.8 67.8047 1559.46 67.5104 1559.25 67.125C1559.04 66.7344 1558.92 66.263 1558.88 65.7109H1560.55C1560.6 66.2891 1560.75 66.6797 1561 66.8828C1561.25 67.0807 1561.65 67.1797 1562.21 67.1797C1562.69 67.1797 1563.07 67.0729 1563.36 66.8594C1563.65 66.6458 1563.83 66.263 1563.88 65.7109H1565.58ZM1575.4 70.7969H1572.55V78H1570.73V70.7969H1567.9V69.3516H1575.4V70.7969ZM1578.84 69.3516V73.7656C1578.84 73.9062 1578.83 74.0859 1578.82 74.3047C1578.82 74.5182 1578.8 74.7422 1578.79 74.9766C1578.77 75.2057 1578.76 75.4167 1578.74 75.6094C1578.73 75.8021 1578.71 75.9453 1578.7 76.0391L1583.05 69.3516H1585.29V78H1583.53V73.6328C1583.53 73.4036 1583.54 73.138 1583.55 72.8359C1583.56 72.5339 1583.58 72.2422 1583.59 71.9609C1583.61 71.6797 1583.63 71.4661 1583.63 71.3203L1579.3 78H1577.07V69.3516H1578.84Z" fill="#1F1E1E"/>
<rect x="1496.5" y="46.5" width="130" height="51" stroke="#1F1E1E"/>
<rect x="293" width="147" height="147" fill="#1F1E1E"/>
<path d="M332.965 72.439H319.633V50.032H319.6V49.999H314.914V73H332.965V72.439Z" fill="white"/>
<path d="M336.932 73H355.049V72.439H341.618V61.285H352.112V60.691H341.618V50.56H355.049V49.999H336.932V73Z" fill="white"/>
<path d="M363.699 73V50.56C366.57 50.56 375.414 51.649 376.074 64.453V73H380.76V49.999H376.074V60.328C374.655 54.19 370.167 49.999 363.699 49.999H359.013V73H363.699Z" fill="white"/>
<path d="M390.389 73V50.56C393.26 50.56 402.104 51.649 402.764 64.453V73H407.45V49.999H402.764V60.328C401.345 54.19 396.857 49.999 390.389 49.999H385.703V73H390.389Z" fill="white"/>
<path d="M412.393 73H417.079V49.999H412.393V73Z" fill="white"/>
<rect x="374" y="92" width="121" height="42" fill="#BC3324"/>
<path d="M401.922 124H402.462L405.402 115.45H413.952L417.282 124H421.752L413.652 103.09H409.122L401.922 124ZM409.422 103.75L413.772 114.94H405.582L409.422 103.75Z" fill="white"/>
<path d="M425.644 103.09V124H429.904V116.77H434.974L439.864 123.97H444.724L439.564 116.32C442.564 115.54 444.844 113.68 444.844 109.51C444.844 104.29 441.034 102.64 436.594 102.64C431.914 102.64 430.564 106.15 429.904 110.05V103.09H425.644ZM431.074 107.47C431.884 104.53 433.984 103.33 435.844 103.18C440.314 102.76 440.494 105.61 440.494 109.51C440.494 115.84 437.134 116.26 434.254 116.26H429.904C429.904 116.26 429.784 112.12 431.074 107.47Z" fill="white"/>
<path d="M455.084 103.6L455.114 124H459.374V103.6H467.984V103.09H446.474V103.6H455.084Z" fill="white"/>
<defs>
<filter id="filter0_b_478_14731" x="-20" y="-20" width="1960" height="187" filterUnits="userSpaceOnUse" color-interpolation-filters="sRGB">
<feFlood flood-opacity="0" result="BackgroundImageFix"/>
<feGaussianBlur in="BackgroundImageFix" stdDeviation="10"/>
<feComposite in2="SourceAlpha" operator="in" result="effect1_backgroundBlur_478_14731"/>
<feBlend mode="normal" in="SourceGraphic" in2="effect1_backgroundBlur_478_14731" result="shape"/>
</filter>
</defs>
</svg>
